<?xml version="1.0" encoding="UTF-8"?><svg id="Layer_2" xmlns="http://www.w3.org/2000/svg" viewBox="0 0 110.99 129.52"><defs><style>.cls-1{fill:#262938;}</style></defs><g id="Layer_1-2"><path class="cls-1" d="M79.2,102.74c-.33-.09-1.17-.14-1.17-.57,7.78,1.08,18.46,2.91,24.19-3.9.25-.3.65-.44.53-.94-7.38,8.29-21.69,5.47-31.05,2.42-.49-.16-1.53-.33-1.74-.81,7.46,1.77,15.79,3.86,23.44,2.06,1.56-.37,3.65-.91,4.79-2.06-7.68,3.64-17.04,2.23-25,.13-3.34-.88-8.58-2.44-11.57-4.03-.31-.16-.64,0-.53-.54,13.62-8.66,26.35-19.55,34.79-33.49,2.95-4.87,6.13-11.12,6.39-16.78.04-.8.4-1.67.21-2.55l-1.27,6.12c-4.86,15.58-28.21,32.96-42.28,40.25-.96.5-3.49,1.97-4.31,2.17-.29.07-.51.17-.79-.02-6.72-4.29-13.69-8.35-19.58-13.78-.94-6.25-.88-12.64-.88-18.96l4.04-3.41-3.63,2.68c-.64.27-.44-1.55-.4-1.75.18-.93,4.43-3.32,5.11-4.43-1.59.55-2.86,2.03-4.21,2.91-.23.15-.71.56-.89.18l5.91-4.57c-.21-.4-.65.06-.88.19-1.67.94-2.94,2.47-4.76,3.17l1.61-1.48-1.61.67c.64-5.88,1.75-11.73,3.24-17.45.47-.41,9.05,2.46,10.33,2.93,6.56,2.41,12.72,5.73,18.76,9.2l10.94,7.2-.87-5.58c-11.4-7.99-23.82-14.81-37.3-18.62-.36-.4,3.26-7.72,3.82-8.68.76-1.33,4.47-6.71,6.13-8.18,1.43,2.62,4.21,4.4,7.4,4.4,2.79,0,5.25-1.36,6.79-3.45,3.71,3.31,6.45,8.01,8.44,12.51,3.64,8.22,5.98,19.05,6.94,28.01.37,3.48.4,7,.54,10.48.01.33-.2,1,.27.94.18-10.48-1.06-21.35-3.9-31.45-2.2-7.84-5.74-15.85-11.59-21.62.59-1.15.93-2.46.93-3.84,0-.2-.02-.4-.03-.6.42.16,1.35.91,1.54,1.07,5.32,4.4,9.48,13.05,11.73,19.8.26.77.46,1.56.64,2.36l3.63,16.28c-.82-7.88-2.62-16.27-5.51-23.65-2.38-6.09-5.62-11.72-10.34-16.27-.68-.65-1.35-1.02-2-1.36-1.03-3.49-4.25-6.05-8.08-6.05s-7.25,2.72-8.16,6.38c-1.04.87-2.01,1.84-3.01,2.9-4.9,5.24-7.99,12.22-10.21,18.96-9.61-2.52-26.81-3.82-31.59,7.53-1.15,2.74-.65,6.93-.36,8.63-1.71,1.54-2.79,3.77-2.79,6.25,0,4.65,3.77,8.42,8.42,8.42.3,0,.59-.02.89-.05,1.86,2.8,3.98,5.44,6.36,7.8-6.42,7.71-15.57,20.23-11.43,30.77,4.39,11.18,21.87,9.87,31.31,7.53l.37-.15.04-.12c3.22,8.05,7.69,16.99,16.1,20.49,1.46,2.5,4.17,4.18,7.27,4.18,4.42,0,8.04-3.4,8.39-7.73,1.34-1.27,2.37-2.51,3.01-3.41,3.07-4.32,5.2-9.27,6.79-14.31,8.2,1.57,17.03,3.03,24.7-1.24.57-.52.16-.49-.29-.29-1.05.47-2.02,1.07-3.13,1.44-6.39,2.14-13.28,1.33-19.75-.01l-9.08-2.88c11.37,3.29,32.87,8.47,36.56-7.53l-1.29,3.14c-4.48,8.3-18.15,8.16-26.03,6.03ZM40.48,87.84c1.18.76,5.23,3.42,6.26,3.7,1.08.29,2.82-.84,4.02-1.11.31-.07,3.18-.59,2.43.41l-15.19,5.37-2.82-12.09c1.77,1.2,3.49,2.56,5.29,3.71ZM50.92,120.79l-2.29-.92c.35.86,1.64,1.05,2.3,1.63.02.37.06.73.12,1.08-.04,0-.08,0-.13-.03-.83-.33-2.99-2.03-3.76-2.69-4.55-3.89-7.38-10.1-9.55-15.58.71-.14.47.15.66.54,2.18,4.47,4.61,10.61,8.48,13.84.21.18.54.71.81.27-4.32-3.97-6.66-9.33-9.13-14.52.33-1.31.69.55,1.07.68l.4-1.34c2.98,5.62,5.74,11.65,11.32,15.15-.16.61-.26,1.24-.29,1.9ZM16.23,67.73c.63.5.3.38,0,.8-1.93,2.64-4.08,5.19-6.04,7.8,1.43-3.24,4.02-5.75,6.05-8.6ZM32.08,97.55c-3.78,1.04-10.35,1.12-14.15.2-14.44-3.5-4.38-20.01,1.53-26.8l4.97,4.7,3.77,2.82-.59-7.34-4.24-4.35,5.64-5.51c.03,12.03.45,24.27,3.72,35.89-.13.33-.37.31-.64.38ZM20.13,63.96c2.76-3.06,5.75-5.97,9.14-8.33l-.56.92c-2.77,1.98-5.07,4.72-7.64,6.88-.3.25-.44.65-.94.53ZM29.5,54.11l-9.73,8.49-4.98-6.44c1.28-1.48,2.06-3.4,2.06-5.51,0-4.08-2.9-7.48-6.76-8.26-.79-11.18,15.43-10.13,22.94-9.34-1.78,6.9-3.07,13.93-3.54,21.06ZM34.4,95.8c-.63-2.09-.99-4.67-1.37-6.84l2.15,7.79c-.72.18-.64-.48-.78-.96ZM36.22,95.58c-.74-2.17-1.3-4.87-1.57-7.16l2.14,8.06c-.49-.08-.45-.55-.57-.9ZM47.69,121.48c-5.27-4.2-8.31-10.44-10.89-16.53l.53-.4c2.14,5.87,5.37,12.19,10.22,16.27,1.14.96,2.5,1.69,3.69,2.6.03.12.07.24.11.36-1.27-.41-2.67-1.51-3.66-2.3ZM74.43,103.21c-2.22,4.61-4.62,9.27-8.39,12.81-1.54-2.03-3.97-3.35-6.71-3.35-3.65,0-6.74,2.32-7.92,5.56-5.2-2.99-8.48-9.16-10.61-14.6,5.43-2.08,10.87-4.13,16.02-6.87,5.69,2.61,11.54,4.82,17.61,6.44Z"/><path class="cls-1" d="M87.74,28.75c-1.8.09-4.7.4-6.44.82-1.09.26-.81,1.71-.29,1.8,8-1.55,18.17-1.59,22.86,6.25l-.4-2.95h.8c-3.82-5.11-10.51-6.21-16.53-5.92Z"/><path class="cls-1" d="M103.32,32.52c1.41,1.27,1.84,2.7,3.1,4.02.14-.75-.64-1.51-.69-2.13-.06-.92.87-.47-.52-2.17-4.48-5.48-12.77-6.07-19.32-5.34-2.04.23-4.05.78-6.08,1.04l.94,1.35c7.17-1.58,16.75-2.05,22.58,3.22Z"/><path class="cls-1" d="M102.12,40.57c1.17-.4.58-1.94.28-2.84-2.49-7.43-15.19-7.3-21.4-5.77l.3,1.37c7.01-1.08,18.75-1.44,20.82,7.24Z"/><path class="cls-1" d="M63.14,93.8c.02.37.41.42.66.54,1.77.89,4.4,1.69,6.33,2.27,6.82,2.05,15.32,3.77,22.37,2.21.45-.1,1.6-.32,1.83-.72-5.07,1.22-10.23.99-15.32,0l2.42-13.98-4.06,13.41-13.14-3.47.27-.8-1.34.54Z"/><path class="cls-1" d="M104.27,55.63c-2.66,3.8-5.3,7.63-8.34,11.15-8.65,10.01-19.16,18.32-30.1,25.68.58,0,1.11-.41,1.59-.69,10.89-6.37,22.61-16.41,30.39-26.33,2.35-2.99,4.81-6.4,6.46-9.8Z"/><path class="cls-1" d="M88.58,63.67l2.74-3.07-6.54-6.04c-.44.21.13.61.14.67.1,1.36,0,2.91,0,4.3,0,1.62,2.72,2.99,3.67,4.15Z"/><path class="cls-1" d="M44.05,113.69l-4.3-8.06c.91,2.79,2.42,5.78,4.3,8.06Z"/><circle class="cls-1" cx="56.13" cy="65.54" r="12.93"/><path class="cls-1" d="M110.99,77.34c0-4.65-3.77-8.42-8.42-8.42-1.07,0-2.09.21-3.04.57l-2.34-2.28-2.6,3.07,1.35,1.87s0,0,0,.01c-1.11,1.43-1.78,3.22-1.78,5.17,0,4.65,3.77,8.42,8.42,8.42.07,0,.15,0,.22-.01.12,0,.24.03.37.03l.31,2.38.26-2.48c.56-.08,1.1-.21,1.62-.39l.27,3.41.03-3.52c.47-.18.91-.41,1.34-.67.55.53.33,3.61,1.32,3.93l-.54-4.42s.04-.06.06-.09c1.93-1.54,3.17-3.92,3.17-6.58Z"/><circle class="cls-1" cx="105.57" cy="42.01" r="1.92"/><path class="cls-1" d="M72.71,31.45l-.46-1.2-6.19,2.31-5.18,2.27s4.23,1.6,5.48,2.85c0,0,2.34-1.54,7.49-2.68l-.39-1.24s-4.1.71-5.83,1.68c0,0,1.2-1.42,5.59-2.37l-.37-1.09s-3.39.49-5.05,1.47c0,0,.24-.93,4.89-1.99Z"/></g></svg>